<?xml version="1.0" encoding="UTF-8" standalone="no"?>
<!-- Created with Inkscape (http://www.inkscape.org/) -->

<svg
   xmlns:dc="http://purl.org/dc/elements/1.1/"
   xmlns:cc="http://creativecommons.org/ns#"
   xmlns:rdf="http://www.w3.org/1999/02/22-rdf-syntax-ns#"
   xmlns:svg="http://www.w3.org/2000/svg"
   xmlns="http://www.w3.org/2000/svg"
   xmlns:sodipodi="http://sodipodi.sourceforge.net/DTD/sodipodi-0.dtd"
   xmlns:inkscape="http://www.inkscape.org/namespaces/inkscape"
   width="400"
   height="400"
   id="svg2"
   version="1.1"
   inkscape:version="0.48.3.1 r9886"
   sodipodi:docname="New document 1">
  <defs
     id="defs4" />
  <sodipodi:namedview
     id="base"
     pagecolor="#ffffff"
     bordercolor="#666666"
     borderopacity="1.0"
     inkscape:pageopacity="0.0"
     inkscape:pageshadow="2"
     inkscape:zoom="1.4"
     inkscape:cx="253.4016"
     inkscape:cy="205.71429"
     inkscape:document-units="px"
     inkscape:current-layer="layer1"
     showgrid="false"
     inkscape:window-width="1680"
     inkscape:window-height="995"
     inkscape:window-x="-2"
     inkscape:window-y="-3"
     inkscape:window-maximized="1" />
  <metadata
     id="metadata7">
    <rdf:RDF>
      <cc:Work
         rdf:about="">
        <dc:format>image/svg+xml</dc:format>
        <dc:type
           rdf:resource="http://purl.org/dc/dcmitype/StillImage" />
        <dc:title></dc:title>
      </cc:Work>
    </rdf:RDF>
  </metadata>
  <g
     inkscape:label="Layer 1"
     inkscape:groupmode="layer"
     id="layer1"
     transform="translate(0,-652.3622)">
    <path
       style="fill:#ffffff;fill-rule:evenodd;"
       d="m 200,662.87139 c -104.6579,0 -189.490809,84.8576 -189.490809,189.50672 0,104.64913 84.832909,189.47489 189.490809,189.47489 104.65791,0 189.4908,-84.82576 189.4908,-189.47489 0,-104.64912 -84.83289,-189.50672 -189.4908,-189.50672 z m 0.28643,34.62356 c 85.62556,0 155.02347,69.39209 155.02347,155.01046 0,85.61836 -69.39791,155.04219 -155.02347,155.04219 -85.62556,0 -155.023466,-69.42383 -155.023466,-155.04219 0,-85.61837 69.397906,-155.01046 155.023466,-155.01046 z"
       id="path2995"
       inkscape:connector-curvature="0" />
    <rect
       style="fill:#ffffff"
       id="rect3031"
       width="75"
       height="250"
       x="162.5"
       y="727.36218" />
    <rect
       style="fill:#ffffff"
       id="rect3031-5"
       width="250"
       height="75"
       x="75"
       y="814.86218" />
  </g>
</svg>
